<?xml version="1.0" standalone="no"?>
<!DOCTYPE svg PUBLIC "-//W3C//DTD SVG 20010904//EN"
 "http://www.w3.org/TR/2001/REC-SVG-20010904/DTD/svg10.dtd">
<svg version="1.0" xmlns="http://www.w3.org/2000/svg"
 width="460.000000pt" height="460.000000pt" viewBox="0 0 460.000000 460.000000"
 preserveAspectRatio="xMidYMid meet">
<metadata>
Created by potrace 1.14, written by Peter Selinger 2001-2017
</metadata>
<g transform="translate(0.000000,460.000000) scale(0.100000,-0.100000)"
fill="#000000" stroke="none">
<path d="M1730 4425 c0 -8 -9 -19 -19 -25 -27 -14 -31 -13 -31 10 0 11 -7 20
-15 20 -10 0 -12 -6 -8 -17 11 -30 30 -43 62 -43 26 0 31 -4 31 -25 0 -22 -4
-25 -35 -25 -27 0 -35 -4 -35 -18 0 -19 -36 -46 -50 -37 -6 3 -7 -1 -4 -9 4
-11 0 -16 -14 -16 -11 0 -27 -7 -36 -15 -16 -17 -56 -20 -56 -5 0 6 -7 10 -16
10 -12 0 -15 6 -10 23 3 12 6 28 6 35 0 7 13 12 29 12 16 0 31 5 33 12 2 6 18
11 36 11 27 0 32 4 32 24 0 24 -27 32 -46 13 -7 -7 -17 -3 -32 10 -27 25 -32
25 -32 0 0 -11 -6 -20 -13 -20 -7 0 -19 9 -27 20 -19 26 -24 25 -38 -5 -16
-35 -16 -35 13 -35 26 0 31 -14 16 -39 -6 -9 -24 -14 -50 -13 -30 1 -41 -2
-41 -13 0 -8 8 -15 18 -15 17 -1 52 -22 52 -32 0 -14 -42 -15 -47 -2 -9 25
-23 15 -23 -16 0 -18 6 -33 15 -36 8 -4 15 -12 15 -20 0 -17 53 -74 68 -74 6
0 14 -9 17 -20 7 -21 25 -28 25 -10 0 6 5 10 10 10 6 0 10 -9 10 -20 0 -19 6
-29 38 -65 7 -8 12 -41 12 -79 0 -37 4 -66 10 -66 6 0 10 -6 10 -14 0 -22 22
-25 103 -15 42 5 79 9 84 8 34 -6 63 3 63 19 0 12 13 23 35 32 32 13 49 40 25
40 -5 0 -10 15 -10 34 0 19 -6 37 -12 40 -10 5 -10 7 0 12 14 7 16 40 3 48 -5
3 -7 15 -4 26 6 22 -12 28 -20 8 -8 -21 4 64 13 94 6 20 5 28 -6 32 -10 4 -13
13 -9 26 10 32 -12 50 -62 50 -25 0 -42 4 -38 10 3 5 12 7 20 4 8 -4 18 1 21
10 4 10 18 16 35 16 18 0 29 5 29 14 0 9 -7 12 -20 9 -14 -4 -20 0 -20 11 0
19 -11 21 -28 4 -18 -18 -62 32 -62 72 0 16 -4 30 -10 30 -5 0 -10 -7 -10 -15z
m-30 -215 c0 -11 5 -20 10 -20 6 0 10 -7 10 -15 0 -8 -4 -15 -10 -15 -5 0 -10
6 -10 13 0 7 -9 19 -20 27 -11 8 -20 18 -20 22 0 4 9 8 20 8 13 0 20 -7 20
-20z m70 10 c0 -5 -4 -10 -10 -10 -5 0 -10 5 -10 10 0 6 5 10 10 10 6 0 10 -4
10 -10z m-160 -55 c0 -18 -5 -25 -20 -25 -11 0 -20 5 -20 10 0 6 5 10 10 10 6
0 10 7 10 15 0 8 5 15 10 15 6 0 10 -11 10 -25z m-154 -19 c19 -19 18 -26 -5
-26 -10 0 -21 9 -24 20 -6 23 8 26 29 6z m191 -58 c-2 -13 -4 -5 -4 17 -1 22
1 32 4 23 2 -10 2 -28 0 -40z m103 42 c0 -5 -4 -10 -10 -10 -5 0 -10 5 -10 10
0 6 5 10 10 10 6 0 10 -4 10 -10z m-140 -70 c0 -5 -4 -10 -10 -10 -5 0 -10 5
-10 10 0 6 5 10 10 10 6 0 10 -4 10 -10z m70 -50 c0 -5 -4 -10 -10 -10 -5 0
-10 5 -10 10 0 6 5 10 10 10 6 0 10 -4 10 -10z m-70 -20 c0 -5 -4 -10 -10 -10
-5 0 -10 5 -10 10 0 6 5 10 10 10 6 0 10 -4 10 -10z m20 -70 c0 -5 -4 -10 -10
-10 -5 0 -10 5 -10 10 0 6 5 10 10 10 6 0 10 -4 10 -10z m70 -20 c0 -5 -4 -10
-10 -10 -5 0 -10 5 -10 10 0 6 5 10 10 10 6 0 10 -4 10 -10z m160 0 c0 -5 -4
-10 -10 -10 -5 0 -10 5 -10 10 0 6 5 10 10 10 6 0 10 -4 10 -10z"/>
<path d="M1797 4414 c-13 -13 -7 -44 8 -44 16 0 17 5 6 33 -3 10 -10 15 -14
11z"/>
<path d="M2690 4345 c0 -18 5 -25 20 -25 11 0 20 -4 20 -10 0 -5 -13 -10 -30
-10 -20 0 -30 -5 -30 -15 0 -8 -6 -15 -12 -15 -10 0 -9 -3 1 -9 7 -5 10 -14 6
-20 -5 -9 -11 -7 -21 6 -12 16 -15 16 -24 3 -9 -13 -11 -13 -20 0 -9 13 -12
13 -24 -3 -12 -15 -18 -17 -36 -7 -12 6 -24 9 -28 6 -3 -3 0 -6 6 -6 7 0 12
-7 12 -15 0 -11 -12 -15 -45 -15 -53 0 -61 -21 -15 -40 35 -14 35 -16 15 -37
-14 -14 -18 -13 -34 6 -19 21 -61 29 -61 11 0 -5 -4 -10 -10 -10 -5 0 -10 9
-10 21 0 23 -27 55 -38 44 -4 -4 -1 -10 6 -12 8 -3 12 -30 12 -85 l0 -80 33 5
c17 3 26 3 20 0 -7 -2 -13 -16 -13 -29 0 -19 5 -24 25 -24 18 0 25 -5 25 -19
0 -11 9 -23 20 -26 30 -10 24 -25 -11 -25 -17 0 -37 -7 -45 -15 -13 -13 -12
-17 6 -35 11 -11 27 -20 35 -20 8 0 15 -4 15 -10 0 -5 10 -10 23 -10 12 0 42
-12 67 -26 26 -15 46 -21 48 -15 6 18 22 12 22 -8 0 -11 5 -23 10 -26 6 -3 10
5 10 19 0 13 -6 27 -12 30 -10 3 -8 9 5 19 9 8 17 26 17 40 0 14 5 29 10 32 6
3 10 17 10 31 0 13 5 24 10 24 6 0 10 9 10 20 0 11 4 20 8 20 5 0 14 11 20 25
6 14 17 25 23 25 17 0 69 60 69 79 0 22 23 71 33 71 4 0 7 7 7 15 0 8 5 15 10
15 6 0 10 5 10 10 0 6 -9 10 -20 10 -16 0 -20 7 -20 34 0 19 6 36 13 39 20 7
3 17 -44 26 -24 5 -34 9 -21 10 12 1 22 7 22 16 0 20 -30 19 -45 -1 -10 -15
-13 -15 -27 0 -24 23 -38 20 -38 -9z m140 -145 c0 -5 -4 -10 -10 -10 -5 0 -10
5 -10 10 0 6 5 10 10 10 6 0 10 -4 10 -10z m-50 -115 c0 -8 -4 -15 -10 -15 -5
0 -10 7 -10 15 0 8 5 15 10 15 6 0 10 -7 10 -15z m-390 -25 c0 -5 -4 -10 -10
-10 -5 0 -10 5 -10 10 0 6 5 10 10 10 6 0 10 -4 10 -10z"/>
<path d="M1540 4265 c0 -9 5 -15 11 -13 6 2 11 8 11 13 0 5 -5 11 -11 13 -6 2
-11 -4 -11 -13z"/>
<path d="M1900 3810 c-12 -8 -11 -10 8 -10 12 0 22 5 22 10 0 13 -11 13 -30 0z"/>
<path d="M1520 3710 c0 -5 11 -10 25 -10 14 0 25 5 25 10 0 6 -11 10 -25 10
-14 0 -25 -4 -25 -10z"/>
<path d="M1410 3664 c0 -8 5 -12 10 -9 6 4 8 11 5 16 -9 14 -15 11 -15 -7z"/>
<path d="M2990 3670 c0 -5 12 -10 26 -10 14 0 23 4 19 10 -3 6 -15 10 -26 10
-10 0 -19 -4 -19 -10z"/>
<path d="M1435 3650 c-3 -5 -1 -10 4 -10 6 0 11 -7 11 -15 0 -18 -46 -21 -52
-3 -3 7 -22 -5 -46 -29 -23 -23 -38 -44 -33 -47 5 -3 12 -27 16 -53 7 -43 8
-46 18 -25 5 12 14 22 19 22 4 0 8 5 8 11 0 6 16 26 35 45 19 18 35 40 35 49
0 8 5 15 10 15 6 0 10 11 10 25 0 25 -23 35 -35 15z"/>
<path d="M3130 3620 c0 -5 5 -10 10 -10 6 0 10 5 10 10 0 6 -4 10 -10 10 -5 0
-10 -4 -10 -10z"/>
<path d="M3480 3600 c0 -6 -7 -10 -15 -10 -8 0 -15 -7 -15 -15 0 -16 36 -20
57 -7 9 6 7 12 -7 25 -11 9 -20 12 -20 7z"/>
<path d="M1201 3583 c-27 -5 -51 -26 -51 -43 0 -14 25 -40 39 -40 6 0 11 -4
11 -10 0 -5 11 -12 25 -16 14 -3 25 -10 25 -15 0 -5 7 -9 16 -9 11 0 14 6 9
20 -4 11 -2 20 4 20 17 0 13 48 -5 75 -16 25 -25 27 -73 18z"/>
<path d="M1958 3563 c-20 -3 -28 -10 -28 -24 0 -10 7 -19 15 -19 17 0 20 -16
5 -25 -5 -3 -10 -15 -10 -26 0 -16 7 -19 40 -19 22 0 40 -3 40 -8 0 -4 9 -13
20 -20 17 -10 23 -10 35 2 22 22 18 39 -15 58 -17 10 -32 29 -36 45 -7 26 -22
45 -34 41 -3 0 -17 -3 -32 -5z"/>
<path d="M2943 3540 c-3 -11 -9 -20 -14 -20 -5 0 -9 -16 -9 -35 0 -24 5 -35
15 -35 8 0 15 5 15 10 0 6 7 10 16 10 29 0 59 46 48 75 -9 23 -65 19 -71 -5z"/>
<path d="M3200 3536 c0 -8 -4 -16 -9 -18 -5 -1 -11 -12 -13 -23 -2 -16 3 -21
30 -23 31 -3 32 -2 32 31 0 23 -6 37 -16 41 -22 8 -24 8 -24 -8z"/>
<path d="M1535 3527 c-43 -50 -59 -97 -32 -97 7 0 19 9 27 20 8 11 25 20 37
20 14 0 23 6 23 15 0 8 9 15 20 15 24 0 25 6 6 26 -18 17 -67 18 -81 1z"/>
<path d="M2330 3520 c0 -16 7 -20 34 -20 19 0 36 -4 38 -9 2 -5 11 -4 21 3 32
24 11 46 -44 46 -42 0 -49 -3 -49 -20z"/>
<path d="M2780 3511 c0 -32 14 -49 25 -31 9 15 -3 60 -15 60 -6 0 -10 -13 -10
-29z"/>
<path d="M680 3510 c-12 -8 -11 -10 7 -10 12 0 25 -5 28 -10 4 -6 16 -8 27 -4
17 5 19 3 13 -15 -12 -38 3 -61 40 -61 18 0 40 -7 49 -15 14 -14 17 -14 34 1
19 16 19 18 3 45 -15 27 -51 41 -51 19 0 -5 -9 -10 -19 -10 -17 0 -19 5 -14
35 l6 35 -54 0 c-30 0 -61 -5 -69 -10z"/>
<path d="M2580 3440 c0 -5 5 -10 10 -10 6 0 10 5 10 10 0 6 -4 10 -10 10 -5 0
-10 -4 -10 -10z"/>
<path d="M3470 3440 c0 -5 7 -10 15 -10 8 0 15 5 15 10 0 6 -7 10 -15 10 -8 0
-15 -4 -15 -10z"/>
<path d="M2820 3420 c-12 -7 -10 -12 10 -31 17 -14 21 -23 13 -26 -7 -3 -13
-16 -13 -29 0 -17 6 -24 19 -24 11 0 23 -4 26 -10 9 -15 45 -12 45 4 0 7 2 26
5 42 7 39 -8 62 -29 45 -13 -11 -18 -10 -31 2 -8 9 -15 20 -15 26 0 13 -10 14
-30 1z"/>
<path d="M1310 3369 c0 -7 -7 -17 -17 -24 -17 -13 -33 -100 -25 -142 7 -35 22
-8 22 40 0 20 3 37 8 37 27 -1 50 -48 27 -56 -10 -4 -15 -21 -15 -53 0 -26 -5
-52 -12 -59 -9 -9 -9 -15 0 -24 7 -7 12 -20 12 -30 0 -10 5 -18 10 -18 6 0 10
7 10 16 0 9 11 25 25 36 27 21 35 73 13 81 -10 4 -10 7 0 18 8 8 12 44 12 101
l0 88 -35 0 c-20 0 -35 -5 -35 -11z"/>
<path d="M1623 3365 c-7 -8 -13 -18 -13 -22 0 -5 -9 -15 -20 -23 -23 -17 -25
-41 -7 -72 19 -35 34 -48 54 -47 16 0 15 2 -4 16 -32 22 -29 42 7 50 22 4 29
10 26 22 -3 9 -8 33 -12 54 -7 40 -12 44 -31 22z"/>
<path d="M2600 3245 c0 -14 -4 -25 -10 -25 -5 0 -10 -9 -10 -19 0 -25 -9 -30
-43 -24 -17 4 -27 12 -27 23 0 35 -26 49 -83 44 -28 -3 -53 -9 -55 -14 -2 -6
-8 -10 -14 -10 -5 0 -15 -6 -22 -12 -8 -7 -23 -20 -35 -28 -21 -15 -30 -60
-11 -60 6 0 10 -18 10 -40 0 -38 2 -40 30 -40 18 0 33 -6 36 -15 4 -8 15 -15
25 -15 10 0 19 -4 19 -10 0 -17 25 -11 40 10 18 25 35 25 52 2 9 -12 29 -18
66 -20 l52 -3 0 45 c0 26 -4 46 -10 46 -5 0 -10 -4 -10 -10 0 -18 -18 -11 -25
9 -10 31 5 71 26 71 10 0 19 -4 19 -10 0 -5 15 -10 33 -10 26 0 35 6 46 30 12
28 11 33 -8 49 -12 10 -21 23 -21 29 0 13 -32 32 -54 32 -10 0 -16 -9 -16 -25z
m-95 -105 c4 -6 -5 -10 -19 -10 -14 0 -26 5 -26 10 0 6 9 10 19 10 11 0 23 -4
26 -10z m-15 -44 c0 -11 -19 -15 -25 -6 -3 5 1 10 9 10 9 0 16 -2 16 -4z"/>
<path d="M1730 3242 c0 -6 -3 -17 -6 -25 -3 -10 4 -17 22 -21 25 -7 25 -8 8
-20 -19 -14 -74 -3 -74 15 0 5 -4 9 -10 9 -5 0 -10 -11 -10 -25 0 -18 5 -25
20 -25 11 0 20 -4 20 -10 0 -5 -4 -10 -10 -10 -5 0 -10 -11 -10 -25 0 -28 -10
-31 -42 -12 -47 26 -61 50 -35 60 9 4 8 8 -3 16 -21 15 -49 14 -66 -3 -16 -17
-19 -56 -4 -56 6 0 10 -15 10 -34 0 -21 6 -36 15 -40 8 -3 15 -15 15 -26 0
-16 6 -20 35 -20 19 0 35 -4 35 -10 0 -5 25 -10 55 -10 48 0 55 2 55 20 0 11
5 20 10 20 6 0 10 16 10 35 0 28 4 35 19 35 17 0 31 18 31 40 0 5 -7 16 -16
25 -12 12 -13 19 -5 29 8 10 9 16 1 21 -5 3 -10 15 -10 26 0 10 -6 19 -14 19
-8 0 -21 3 -30 6 -9 3 -16 2 -16 -4z"/>
<path d="M1948 3148 c-10 -12 -18 -32 -18 -45 0 -13 -4 -23 -10 -23 -5 0 -10
-13 -10 -30 0 -16 5 -30 10 -30 6 0 10 -7 10 -15 0 -10 11 -15 35 -15 19 0 35
4 35 9 0 5 11 12 25 15 20 5 25 13 25 36 0 17 5 30 10 30 6 0 10 -4 10 -10 0
-5 11 -10 24 -10 13 0 27 -6 29 -12 4 -8 8 -4 12 10 4 12 11 22 16 22 5 0 9
16 9 35 0 29 -4 35 -21 35 -11 0 -30 5 -41 11 -16 8 -23 8 -30 -2 -7 -11 -11
-11 -15 -1 -3 7 -22 12 -46 12 -31 0 -47 -6 -59 -22z"/>
<path d="M2850 2955 c0 -8 -4 -15 -10 -15 -5 0 -10 -13 -10 -29 0 -37 27 -48
52 -22 23 25 23 43 0 64 -23 21 -32 21 -32 2z"/>
<path d="M2736 2799 c-21 -16 -25 -26 -19 -47 10 -42 43 -58 43 -21 0 12 11
32 25 45 24 22 25 24 6 34 -25 13 -24 13 -55 -11z"/>
<path d="M1426 2784 c-9 -36 3 -86 25 -105 11 -9 19 -21 19 -27 0 -6 6 -13 13
-16 6 -3 2 -3 -10 0 -13 3 -23 1 -23 -5 0 -6 5 -11 10 -11 6 0 10 -11 10 -25
0 -14 -4 -25 -10 -25 -5 0 -10 -23 -10 -50 0 -46 4 -55 39 -90 22 -22 42 -40
44 -40 3 0 11 20 18 45 8 25 19 45 27 45 11 0 13 9 8 38 -10 52 -10 79 -1 140
8 56 -6 102 -32 102 -7 0 -13 3 -13 8 0 12 -60 42 -85 42 -16 0 -25 -7 -29
-26z"/>
<path d="M2830 2750 c0 -5 5 -10 10 -10 6 0 10 5 10 10 0 6 -4 10 -10 10 -5 0
-10 -4 -10 -10z"/>
<path d="M2810 2720 c0 -5 -5 -10 -11 -10 -20 0 -39 -29 -39 -60 0 -43 31 -37
45 8 5 17 13 32 17 32 4 0 8 9 8 20 0 11 -4 20 -10 20 -5 0 -10 -4 -10 -10z"/>
<path d="M2120 2546 c0 -9 5 -16 10 -16 6 0 10 4 10 9 0 6 -4 13 -10 16 -5 3
-10 -1 -10 -9z"/>
<path d="M1386 2448 c-4 -10 -16 -20 -25 -23 -19 -6 -43 -69 -34 -91 3 -8 16
-14 29 -14 20 0 24 -5 24 -30 0 -16 5 -30 10 -30 6 0 10 -7 10 -15 0 -8 -4
-15 -10 -15 -5 0 -10 -11 -10 -25 0 -14 -4 -25 -10 -25 -18 0 -11 -55 10 -70
21 -15 27 -54 10 -65 -19 -12 -11 -45 10 -45 11 0 20 -5 20 -10 0 -6 11 -16
25 -22 23 -10 35 -38 17 -38 -10 0 -55 31 -64 44 -3 5 -13 2 -23 -7 -9 -10
-20 -17 -24 -17 -10 0 -41 -67 -41 -90 0 -10 6 -21 13 -24 10 -5 10 -7 0 -12
-33 -15 0 -95 47 -114 16 -7 30 -16 30 -21 0 -5 20 -9 45 -9 l45 0 0 -39 c0
-22 4 -51 10 -65 6 -16 6 -27 0 -31 -6 -4 -10 -31 -10 -61 l0 -54 45 0 c25 0
45 5 45 10 0 6 7 10 15 10 19 0 22 105 3 114 -10 5 -10 7 0 12 7 3 12 25 12
55 0 48 -1 49 -31 49 -45 0 -59 20 -59 83 0 35 -5 58 -12 61 -10 5 -10 7 0 12
6 3 12 12 12 20 0 8 5 14 10 14 6 0 10 9 10 20 0 16 7 20 30 20 18 0 33 -6 36
-15 4 -8 14 -15 23 -15 14 -1 14 -2 -1 -14 -23 -17 -23 -26 2 -26 11 0 20 -4
20 -9 0 -5 23 -12 50 -16 39 -5 50 -11 50 -25 0 -10 -6 -21 -12 -23 -10 -4
-10 -8 1 -15 7 -5 10 -15 7 -21 -11 -17 5 -101 18 -101 8 0 11 -12 8 -35 -3
-21 0 -35 7 -35 6 0 11 -12 11 -27 0 -16 7 -37 15 -47 9 -12 15 -42 15 -72 0
-44 -3 -52 -21 -57 -11 -3 -23 -15 -26 -26 -3 -12 -9 -21 -14 -21 -5 0 -9 -25
-9 -55 0 -30 5 -55 10 -55 6 0 10 -11 10 -25 0 -30 -16 -33 -23 -5 -8 31 -34
34 -98 14 -44 -14 -61 -25 -69 -45 -13 -30 4 -79 27 -79 7 0 21 -4 31 -9 9 -6
34 -13 55 -16 20 -3 37 -10 37 -16 0 -6 15 -9 33 -7 24 2 33 8 35 26 4 25 42
32 42 7 0 -8 -4 -15 -10 -15 -5 0 -10 -9 -10 -20 0 -11 5 -20 10 -20 6 0 10 7
10 15 0 8 5 15 10 15 6 0 10 -22 10 -49 0 -28 5 -53 10 -56 6 -3 10 -15 10
-26 0 -10 -4 -19 -10 -19 -5 0 -10 5 -10 10 0 6 -4 10 -10 10 -5 0 -10 -9 -10
-20 0 -13 7 -20 20 -20 11 0 20 -4 20 -10 0 -5 -13 -10 -29 -10 -16 0 -32 -6
-35 -12 -5 -10 -7 -10 -12 0 -3 6 -12 12 -20 12 -8 0 -14 5 -14 10 0 6 -9 10
-20 10 -11 0 -20 -4 -20 -10 0 -5 -7 -10 -15 -10 -8 0 -15 -9 -15 -20 0 -11
-4 -20 -10 -20 -17 0 -11 -52 8 -66 9 -7 33 -14 53 -14 64 0 133 -49 99 -70
-9 -6 -7 -10 9 -15 11 -3 21 -11 21 -16 0 -5 7 -9 15 -9 8 0 15 -5 15 -10 0
-14 66 -80 80 -80 5 0 10 -6 10 -13 0 -7 9 -19 20 -27 12 -9 18 -21 15 -31 -4
-12 1 -20 15 -24 20 -6 28 -25 10 -25 -5 0 -12 -12 -16 -27 -3 -16 -8 -36 -11
-45 -3 -13 1 -18 16 -18 12 0 21 -7 21 -15 0 -8 5 -15 10 -15 6 0 10 16 10 35
0 19 5 35 11 35 20 0 39 -29 39 -59 0 -17 5 -31 10 -31 6 0 10 -9 10 -20 0
-11 7 -20 15 -20 8 0 15 -5 15 -10 0 -19 45 -57 75 -64 17 -4 47 -10 68 -13
22 -3 37 -11 37 -19 0 -11 16 -14 65 -14 37 0 65 -4 65 -10 0 -6 26 -10 59
-10 37 0 61 -5 63 -12 3 -9 18 -9 63 0 32 7 87 12 122 12 35 0 63 4 63 9 0 5
11 12 25 15 14 4 25 11 25 16 0 6 9 10 19 10 19 0 37 28 25 39 -4 3 -9 0 -11
-6 -3 -7 -11 -13 -19 -13 -8 0 -14 -4 -14 -9 0 -10 -102 -32 -110 -24 -3 3 1
8 8 10 26 10 -2 23 -49 23 -42 0 -49 3 -49 20 0 13 7 20 20 20 11 0 20 5 20
11 0 6 6 17 14 25 8 7 17 19 20 26 5 10 7 10 12 1 11 -25 24 -13 24 22 0 33 2
35 35 35 34 0 35 1 35 41 0 59 -15 69 -103 69 -42 0 -82 3 -91 6 -25 9 -19 24
9 24 14 0 25 5 25 10 0 6 -7 10 -16 10 -11 0 -14 6 -8 23 3 12 11 24 15 25 5
2 9 13 9 24 0 11 10 29 23 40 15 13 18 21 10 24 -22 9 -14 24 12 24 14 0 25
-4 25 -10 0 -5 9 -10 20 -10 11 0 20 3 20 6 0 15 -32 34 -57 34 -44 0 -60 16
-24 23 42 9 39 27 -4 27 -19 0 -35 -4 -35 -10 0 -14 -29 -12 -44 3 -7 6 -15
20 -19 30 -10 28 -87 20 -87 -9 0 -8 5 -14 10 -14 20 0 9 -19 -12 -22 -17 -2
-22 -9 -19 -23 11 -61 12 -128 2 -138 -16 -16 -14 -47 3 -47 8 0 16 9 18 19 3
18 5 18 22 5 19 -13 19 -14 -4 -34 -20 -17 -21 -22 -9 -37 8 -10 18 -21 23
-25 10 -7 -17 -38 -33 -38 -21 0 -11 -20 14 -26 31 -8 32 -22 3 -26 -15 -2
-23 -10 -23 -23 0 -15 -8 -21 -32 -23 -18 -2 -33 -7 -33 -13 0 -5 5 -9 10 -9
6 0 10 -4 10 -10 0 -14 -53 -13 -68 2 -6 6 -15 8 -19 4 -4 -4 -1 -11 7 -16 8
-5 11 -13 6 -17 -5 -4 -11 -2 -13 5 -7 18 -53 15 -53 -3 0 -9 9 -15 25 -15 14
0 25 -4 25 -10 0 -13 -13 -13 -45 2 -14 6 -25 17 -25 25 0 7 -4 13 -10 13 -5
0 -10 9 -10 20 0 11 5 20 10 20 6 0 10 5 10 10 0 19 -39 10 -45 -10 -7 -23
-25 -27 -25 -5 0 24 -17 17 -24 -10 -4 -14 -11 -25 -16 -25 -13 0 -1 52 14 62
6 4 19 8 29 8 9 0 17 5 17 10 0 6 6 10 14 10 8 0 16 6 18 12 3 9 9 8 21 -4 9
-9 17 -21 17 -26 0 -6 6 -13 13 -15 7 -4 3 -8 -10 -12 -13 -4 -23 -15 -23 -26
0 -26 9 -24 36 9 27 31 31 62 9 62 -8 0 -15 5 -15 10 0 6 -7 10 -15 10 -8 0
-15 7 -15 16 0 13 7 15 32 10 18 -3 35 -11 38 -16 4 -6 14 -8 23 -4 13 5 14 9
4 25 -9 14 -23 19 -54 19 -24 0 -43 -4 -43 -10 0 -5 -9 -10 -19 -10 -33 0 -51
-11 -51 -31 0 -25 -12 -24 -28 1 -7 12 -8 20 -2 20 5 0 10 7 10 15 0 8 -7 15
-15 15 -8 0 -15 -4 -15 -10 0 -5 -8 -10 -18 -10 -10 0 -23 -5 -30 -12 -9 -9
-12 -8 -12 4 0 9 9 20 20 23 20 6 29 45 10 45 -5 0 -10 16 -10 35 0 19 5 35
10 35 6 0 10 -4 10 -10 0 -5 9 -10 20 -10 15 0 22 8 26 29 8 38 29 46 56 21
12 -11 31 -20 42 -19 12 0 15 3 9 6 -7 2 -13 20 -13 38 0 25 5 35 20 40 11 3
20 11 20 16 0 5 7 9 15 9 8 0 15 8 15 18 0 9 11 26 25 36 33 25 32 57 -4 95
-29 31 -51 40 -51 21 0 -5 -9 -10 -20 -10 -11 0 -20 -4 -20 -10 0 -5 -4 -10
-10 -10 -5 0 -10 9 -10 20 0 13 7 20 20 20 15 0 20 7 20 25 0 21 -5 25 -30 25
-27 0 -30 3 -30 29 0 17 4 33 10 36 6 4 10 58 10 130 0 89 3 125 13 129 10 5
10 7 0 12 -15 7 -18 90 -3 99 6 3 10 35 10 71 0 36 4 64 10 64 6 0 10 6 10 13
0 7 11 24 25 39 22 24 25 36 25 103 0 43 -4 75 -10 75 -14 0 -12 27 3 34 10 5
10 7 0 12 -15 7 -17 44 -3 44 6 0 10 7 10 15 0 18 16 20 24 3 5 -10 7 -10 12
0 3 6 21 12 40 12 19 0 34 5 34 10 0 6 30 10 70 10 52 0 70 -3 70 -13 0 -16
41 -37 70 -37 11 0 20 -4 20 -10 0 -21 20 -9 26 15 3 14 10 25 15 25 5 0 9 11
9 25 0 14 5 25 10 25 6 0 10 9 10 20 0 13 -7 20 -20 20 -11 0 -20 5 -20 10 0
6 -17 10 -37 10 -68 0 -83 9 -83 46 0 19 -4 34 -10 34 -5 0 -10 9 -10 20 0 11
-6 20 -13 20 -22 0 -26 -10 -17 -36 14 -35 2 -54 -31 -54 -19 0 -29 -5 -29
-15 0 -8 -7 -15 -15 -15 -8 0 -15 -9 -15 -20 0 -32 -14 -23 -32 20 -13 28 -16
53 -11 86 4 34 2 49 -8 56 -11 7 -11 11 -1 15 6 2 12 11 12 19 0 8 7 14 15 14
25 0 125 -34 125 -42 0 -4 9 -8 20 -8 15 0 20 7 20 25 0 14 -4 25 -10 25 -5 0
-10 5 -10 10 0 6 6 10 14 10 8 0 17 6 19 13 4 10 6 10 6 0 1 -7 5 -13 10 -13
6 0 7 16 4 35 -6 39 3 46 17 13 l9 -23 7 23 c5 18 14 22 46 22 22 0 46 7 55
15 18 19 22 117 4 123 -7 2 -11 30 -11 68 0 36 -4 64 -10 64 -5 0 -10 7 -10
16 0 25 -44 13 -48 -13 -2 -13 -8 -23 -13 -23 -5 0 -9 -14 -9 -30 0 -29 -5
-38 -37 -75 -7 -7 -13 -16 -13 -19 0 -11 -117 -121 -143 -135 -33 -18 -145
-20 -159 -4 -6 7 -23 13 -38 13 -16 0 -31 6 -33 13 -4 10 -6 10 -6 0 -1 -16
-141 -18 -141 -3 0 6 -25 10 -55 10 -30 0 -75 7 -99 15 -35 12 -58 13 -103 6
-34 -5 -77 -6 -103 -1 -25 5 -69 9 -97 10 -29 0 -53 5 -53 10 0 6 -11 10 -25
10 -14 0 -25 5 -25 10 0 6 -18 10 -40 10 -30 0 -47 7 -66 25 -14 14 -34 25
-45 25 -33 0 -49 25 -49 74 0 25 -6 51 -14 58 -8 8 -16 23 -18 34 -4 17 -6 17
-12 2z m494 -368 c0 -5 -2 -10 -4 -10 -3 0 -8 5 -11 10 -3 6 -1 10 4 10 6 0
11 -4 11 -10z m-17 -23 c7 -17 86 -15 97 2 6 10 9 8 15 -8 6 -20 14 -23 69
-25 11 -1 21 -7 24 -14 2 -6 9 -12 15 -12 7 -1 23 -17 35 -37 24 -37 26 -83 8
-125 -6 -13 -2 -19 17 -23 37 -10 67 10 67 45 0 15 6 31 13 34 10 5 10 7 0 12
-8 3 -13 24 -13 50 l0 44 66 0 c56 0 65 -2 63 -17 -5 -52 1 -71 26 -77 21 -5
25 -12 25 -46 0 -22 -4 -40 -10 -40 -5 0 -10 -14 -10 -30 0 -46 -24 -95 -70
-140 l-41 -40 -84 0 c-50 0 -85 4 -85 10 0 6 -4 10 -10 10 -5 0 -10 -9 -10
-20 0 -16 -7 -20 -34 -20 -19 0 -37 -6 -40 -12 -3 -9 -11 -6 -24 10 -11 12
-25 22 -31 22 -6 0 -11 9 -11 21 0 16 -5 19 -22 15 -13 -3 -17 -3 -10 0 6 3
12 21 12 40 0 24 5 34 15 34 44 0 75 92 42 124 -16 16 -81 30 -125 27 -18 -2
-40 3 -48 10 -13 10 -17 10 -24 -1 -7 -11 -12 -10 -27 5 -13 13 -14 20 -5 23
17 5 15 39 -3 46 -8 3 -15 14 -15 25 0 11 -5 21 -12 23 -7 3 -8 10 -4 17 7 10
14 6 32 -15 13 -15 27 -24 32 -19 4 4 1 10 -5 12 -18 6 -16 40 2 47 8 3 29 3
45 -1 23 -4 30 -2 30 11 0 19 16 21 23 3z m-323 -127 c0 -15 -7 -20 -25 -20
-27 0 -28 1 -19 24 9 24 44 20 44 -4z m530 -410 c0 -27 3 -50 8 -50 4 0 16
-16 26 -35 11 -21 27 -35 38 -35 15 0 18 -8 18 -45 0 -25 5 -45 10 -45 6 0 10
-9 10 -20 0 -11 -5 -20 -11 -20 -6 0 -9 -15 -7 -37 2 -22 -2 -38 -10 -41 -6
-2 -12 2 -12 8 0 18 -27 40 -49 40 -12 0 -21 5 -21 10 0 6 -8 10 -18 10 -25 0
-58 40 -41 50 18 11 -14 42 -35 34 -11 -4 -16 0 -16 14 0 12 5 24 10 27 6 3
10 24 10 46 0 21 5 39 10 39 6 0 10 9 10 20 0 20 46 80 62 80 4 0 8 -22 8 -50z
m130 -310 c0 -5 -4 -10 -10 -10 -5 0 -10 5 -10 10 0 6 5 10 10 10 6 0 10 -4
10 -10z m-391 -107 c0 -25 -1 -25 -8 -8 -5 11 -7 23 -4 28 8 14 13 7 12 -20z
m351 -143 c0 -11 -4 -20 -10 -20 -5 0 -10 9 -10 20 0 11 5 20 10 20 6 0 10 -9
10 -20z m37 -52 c-3 -7 -5 -2 -5 12 0 14 2 19 5 13 2 -7 2 -19 0 -25z m-357
-128 c0 -11 -4 -20 -10 -20 -5 0 -10 9 -10 20 0 11 5 20 10 20 6 0 10 -9 10
-20z m920 -417 l25 -12 -27 0 c-16 -1 -28 1 -28 3 0 2 -3 13 -6 23 -3 10 -2
14 3 8 4 -6 19 -16 33 -22z m-510 -63 c0 -11 -4 -20 -10 -20 -5 0 -10 -11 -10
-25 0 -14 -4 -25 -10 -25 -5 0 -10 11 -10 25 0 14 5 25 10 25 6 0 10 9 10 20
0 11 5 20 10 20 6 0 10 -9 10 -20z m460 10 c0 -5 7 -10 15 -10 8 0 15 -4 15
-10 0 -5 -20 -10 -45 -10 -48 0 -52 3 -32 25 14 16 47 20 47 5z m30 -70 c0 -5
-16 -10 -35 -10 -19 0 -35 5 -35 10 0 6 16 10 35 10 19 0 35 -4 35 -10z m-45
-36 c13 -5 14 -8 3 -15 -19 -13 -28 -11 -28 6 0 17 2 18 25 9z m-375 -34 c0
-5 -4 -10 -10 -10 -5 0 -10 5 -10 10 0 6 5 10 10 10 6 0 10 -4 10 -10z"/>
<path d="M2110 1650 c-13 -8 -12 -10 3 -10 9 0 17 5 17 10 0 12 -1 12 -20 0z"/>
<path d="M2760 2450 c0 -5 5 -10 10 -10 6 0 10 5 10 10 0 6 -4 10 -10 10 -5 0
-10 -4 -10 -10z"/>
<path d="M2732 2405 c-16 -34 -15 -70 0 -37 6 12 15 22 20 22 4 0 8 9 8 20 0
28 -15 25 -28 -5z"/>
<path d="M1290 2150 c0 -5 -9 -10 -20 -10 -13 0 -22 -9 -26 -25 -3 -14 -10
-25 -15 -25 -5 0 -9 -16 -9 -35 0 -19 -4 -35 -10 -35 -5 0 -10 -9 -10 -20 0
-11 5 -20 10 -20 6 0 10 4 10 8 0 5 11 15 25 22 14 7 25 19 25 27 0 7 9 13 20
13 13 0 20 7 20 19 0 11 6 21 13 24 10 4 10 7 0 18 -7 7 -13 21 -13 31 0 10
-4 18 -10 18 -5 0 -10 -4 -10 -10z"/>
<path d="M2920 2060 c0 -5 5 -10 10 -10 6 0 10 5 10 10 0 6 -4 10 -10 10 -5 0
-10 -4 -10 -10z"/>
<path d="M1150 1910 c0 -13 7 -20 20 -20 13 0 20 7 20 20 0 13 -7 20 -20 20
-13 0 -20 -7 -20 -20z"/>
<path d="M2600 1740 c0 -5 5 -10 10 -10 6 0 10 5 10 10 0 6 -4 10 -10 10 -5 0
-10 -4 -10 -10z"/>
<path d="M1143 1632 c-22 -14 -32 -56 -18 -75 17 -24 25 -21 25 7 0 13 4 26 9
28 13 4 18 40 6 44 -5 2 -15 0 -22 -4z"/>
<path d="M2970 1625 c0 -8 5 -15 10 -15 6 0 10 7 10 15 0 8 -4 15 -10 15 -5 0
-10 -7 -10 -15z"/>
<path d="M2810 1550 c0 -5 -7 -10 -15 -10 -8 0 -15 -6 -15 -14 0 -8 -6 -17
-12 -19 -10 -4 -10 -6 0 -6 6 -1 12 -8 12 -16 0 -8 7 -15 15 -15 8 0 15 -4 15
-10 0 -5 11 -10 25 -10 14 0 25 5 25 10 0 6 7 10 15 10 12 0 14 -7 9 -26 -6
-23 -4 -25 15 -19 17 5 21 2 21 -14 0 -12 -4 -21 -10 -21 -18 0 -10 -29 10
-35 22 -7 26 -21 8 -27 -19 -7 16 -38 41 -38 19 0 21 6 21 69 0 40 -4 71 -11
73 -5 2 -10 22 -11 46 0 29 -5 42 -14 42 -8 0 -14 5 -14 10 0 6 -11 10 -25 10
-14 0 -25 5 -25 10 0 6 -18 10 -40 10 -22 0 -40 -4 -40 -10z"/>
<path d="M2714 1486 c-4 -11 -13 -15 -25 -11 -13 4 -19 1 -19 -9 0 -13 -12
-16 -56 -16 -54 0 -84 -14 -84 -39 0 -6 -6 -11 -14 -11 -16 0 -29 -27 -20 -41
9 -15 -6 -49 -22 -49 -18 0 -19 -76 -1 -94 22 -23 57 -30 57 -12 0 10 9 16 25
16 26 0 34 15 13 23 -10 4 -10 8 1 15 8 6 11 18 6 31 -5 15 -2 21 9 21 9 0 16
-4 16 -9 0 -5 9 -11 20 -13 12 -2 21 -7 21 -13 0 -5 -9 -11 -21 -13 -26 -4
-26 -22 0 -22 11 0 20 -4 20 -10 0 -5 -4 -10 -10 -10 -16 0 -11 -27 6 -34 24
-9 54 3 55 22 1 9 1 32 0 51 -3 33 -3 33 36 28 21 -3 53 -9 71 -13 21 -4 32
-2 32 5 0 6 9 11 20 11 16 0 20 7 20 31 0 17 -6 37 -14 45 -18 17 -52 18 -60
2 -5 -10 -7 -10 -12 0 -3 6 -14 12 -25 12 -14 0 -19 7 -19 25 0 14 -4 25 -10
25 -14 0 -12 37 3 43 9 4 9 7 0 17 -10 11 -14 10 -19 -4z m-24 -111 c0 -25 5
-45 10 -45 6 0 5 -8 -2 -20 -18 -29 -44 -25 -56 9 -9 25 -8 30 9 34 14 4 19
14 19 36 0 17 5 31 10 31 6 0 10 -20 10 -45z"/>
<path d="M2760 1443 c1 -14 27 -43 39 -43 6 0 11 11 11 25 0 20 -5 25 -25 25
-14 0 -25 -3 -25 -7z"/>
<path d="M1170 1400 c0 -11 -4 -20 -10 -20 -5 0 -10 -11 -10 -25 0 -14 4 -25
9 -25 5 0 12 -9 16 -19 6 -19 7 -19 26 -3 20 17 27 72 9 72 -5 0 -10 9 -10 20
0 11 -7 20 -15 20 -8 0 -15 -9 -15 -20z"/>
<path d="M1177 1263 c-4 -3 -7 -14 -7 -22 0 -9 -9 -23 -20 -31 -23 -16 -26
-36 -7 -44 10 -5 10 -7 0 -12 -7 -3 -13 -13 -13 -22 0 -8 -17 -31 -37 -50 -24
-22 -33 -37 -25 -39 6 -3 12 -15 12 -28 0 -13 6 -25 13 -28 18 -7 -5 -41 -32
-45 -32 -5 -25 -22 9 -22 29 0 30 -2 30 -45 0 -25 -4 -45 -10 -45 -5 0 -10
-20 -10 -44 0 -37 -4 -46 -21 -51 -17 -6 -20 -12 -14 -33 3 -15 9 -39 12 -54
3 -16 9 -28 14 -28 5 0 9 -40 9 -90 0 -87 -10 -114 -26 -67 -7 20 -9 18 -14
-13 -4 -27 -10 -36 -27 -38 -18 -3 -23 2 -23 18 0 26 -35 65 -50 55 -6 -4 -8
-15 -5 -26 7 -21 6 -21 -60 -21 -61 0 -65 1 -65 12 0 6 9 10 20 10 23 0 28 34
8 44 -10 5 -10 7 0 12 19 9 15 51 -6 57 -11 2 -22 17 -25 36 -6 28 -27 45 -27
21 0 -5 -4 -10 -10 -10 -5 0 -10 16 -10 35 0 24 5 35 15 35 8 0 15 -5 15 -12
0 -6 9 0 20 13 11 13 24 29 30 36 13 16 13 53 0 53 -5 0 -10 -4 -10 -10 0 -5
-6 -10 -14 -10 -8 0 -17 -6 -19 -12 -4 -10 -6 -10 -6 0 -1 6 -8 12 -16 12 -8
0 -15 5 -15 10 0 6 11 10 24 10 27 0 42 15 26 25 -15 9 -2 25 21 25 32 0 21
17 -16 24 -19 4 -34 12 -32 19 1 8 -15 13 -45 15 -31 2 -48 -1 -48 -8 0 -6 8
-10 18 -9 9 1 26 1 37 0 44 -3 -11 -21 -64 -21 -43 0 -57 4 -73 22 -14 17 -21
19 -27 10 -5 -9 -33 -13 -84 -13 -69 0 -99 -10 -64 -22 9 -3 9 -7 -2 -20 -9
-11 -10 -17 -2 -17 6 0 11 -9 11 -19 0 -38 -11 -51 -44 -50 -29 0 -30 1 -8 11
38 19 28 44 -22 51 -50 7 -116 -1 -116 -15 0 -5 -9 -6 -20 -3 -14 5 -20 2 -20
-9 0 -9 5 -16 10 -16 6 0 10 -16 10 -35 0 -19 -4 -35 -9 -35 -22 0 -46 -133
-28 -152 7 -7 13 -42 15 -78 1 -36 7 -67 12 -68 6 -2 10 -12 10 -22 0 -10 5
-22 11 -25 6 -4 8 -14 5 -22 -3 -8 3 -24 14 -35 11 -12 20 -28 20 -35 0 -18
77 -93 95 -93 8 0 15 -4 15 -10 0 -5 11 -10 24 -10 13 0 26 -4 28 -9 5 -14
119 -33 223 -38 50 -2 91 -8 93 -13 5 -13 52 -13 52 0 0 6 32 10 75 10 l74 0
51 50 c27 28 50 60 50 70 0 13 7 20 20 20 11 0 20 -4 20 -9 0 -5 11 -12 25
-15 14 -4 25 -13 25 -22 0 -16 23 -44 36 -44 3 0 15 -9 25 -21 10 -12 35 -23
58 -26 23 -3 41 -10 41 -14 0 -12 277 -11 282 0 2 5 67 11 146 12 103 2 146 6
154 16 6 7 17 13 24 13 8 0 14 5 14 10 0 6 9 10 21 10 19 0 49 21 49 34 0 3
-7 6 -15 6 -8 0 -15 -4 -15 -10 0 -5 -9 -10 -19 -10 -11 0 -22 -6 -25 -12 -5
-10 -7 -10 -12 0 -3 6 -12 12 -20 12 -8 0 -14 5 -14 10 0 6 -9 10 -20 10 -11
0 -20 -4 -20 -10 0 -5 9 -10 20 -10 11 0 20 -3 20 -6 0 -14 -31 -34 -54 -34
-20 0 -26 5 -26 23 1 20 2 20 11 5 5 -10 14 -18 19 -18 14 0 12 27 -2 34 -10
5 -10 7 0 12 14 7 16 34 2 34 -5 0 -10 5 -10 10 0 12 47 14 52 2 2 -5 15 -12
31 -16 24 -6 27 -4 27 19 0 16 6 25 15 25 20 0 19 16 -1 24 -25 10 -34 7 -34
-9 0 -8 -4 -15 -10 -15 -15 0 -12 48 3 53 7 2 8 8 3 13 -5 5 -11 4 -13 -3 -3
-7 -15 -13 -28 -13 -13 0 -25 -6 -28 -12 -2 -8 -8 -9 -13 -4 -5 5 -4 11 4 13
6 3 12 11 12 19 0 8 5 14 10 14 6 0 10 5 10 11 0 6 -13 9 -28 8 -31 -4 -78 31
-54 39 20 6 14 43 -8 49 -11 3 -20 14 -20 24 0 13 -10 20 -37 25 -21 4 -32 9
-25 11 6 3 12 11 12 19 0 8 9 14 20 14 11 0 20 5 20 10 0 6 -13 10 -30 10 -16
0 -30 -4 -30 -10 0 -5 -7 -10 -16 -10 -11 0 -14 6 -9 23 4 12 11 26 16 32 5 5
9 17 9 27 0 10 5 18 10 18 6 0 2 10 -10 22 -11 12 -20 25 -20 30 0 17 -22 7
-27 -12 -6 -23 -19 -26 -26 -7 -4 10 -7 10 -18 0 -16 -15 -69 -17 -69 -3 0 6
-9 10 -21 10 -34 0 -49 24 -49 79 0 40 -4 52 -20 61 -22 12 -86 4 -96 -12 -3
-5 -11 -4 -19 2 -16 13 -75 4 -75 -11 0 -5 -8 -9 -17 -9 -10 0 -27 -14 -38
-30 -25 -38 -35 -38 -35 0 0 17 5 30 10 30 6 0 10 11 10 25 0 14 -4 25 -10 25
-6 0 -10 37 -10 90 0 50 3 90 8 90 4 0 16 15 26 34 13 25 15 38 8 53 -6 11 -9
54 -7 96 4 78 4 83 -8 70z m-573 -439 c13 -5 13 -8 1 -20 -19 -19 -25 -18 -25
6 0 22 1 23 24 14z m-234 -54 c0 -5 -11 -10 -25 -10 -14 0 -25 5 -25 10 0 6
11 10 25 10 14 0 25 -4 25 -10z m370 0 c0 -5 -7 -10 -15 -10 -8 0 -15 5 -15
10 0 6 7 10 15 10 8 0 15 -4 15 -10z m620 -20 c0 -5 -7 -10 -15 -10 -8 0 -15
-4 -15 -10 0 -5 -5 -10 -10 -10 -7 0 -7 6 0 20 11 21 40 28 40 10z m90 -85 c0
-14 5 -25 10 -25 6 0 10 -9 10 -20 0 -11 -4 -20 -10 -20 -5 0 -10 5 -10 10 0
6 -9 10 -20 10 -11 0 -20 5 -20 10 0 6 -6 10 -14 10 -19 0 -48 29 -41 41 4 5
26 9 51 9 40 0 44 -2 44 -25z m-17 -127 c4 -10 8 -9 16 2 5 8 14 11 18 6 4 -5
2 -11 -4 -13 -15 -5 -17 -43 -3 -43 6 0 10 -5 10 -11 0 -6 6 -17 13 -24 29
-33 37 -45 37 -55 0 -5 5 -10 10 -10 6 0 10 -29 10 -66 0 -57 3 -67 20 -71 20
-5 28 -23 10 -23 -5 0 -10 -9 -10 -21 0 -12 -8 -23 -20 -26 -11 -3 -20 -9 -20
-14 0 -5 -7 -9 -15 -9 -8 0 -15 -9 -15 -20 0 -11 -4 -20 -10 -20 -5 0 -10 9
-10 20 0 11 -4 20 -10 20 -5 0 -10 -9 -10 -20 0 -13 -7 -20 -20 -20 -11 0 -20
5 -20 10 0 6 -11 10 -25 10 -14 0 -25 5 -25 10 0 6 -11 10 -25 10 -14 0 -25
-4 -25 -10 0 -5 -4 -10 -10 -10 -5 0 -10 8 -10 19 0 14 10 20 42 24 24 3 44
11 46 16 2 6 19 11 38 11 19 0 34 5 34 10 0 15 -67 12 -74 -2 -5 -10 -7 -10
-12 0 -3 7 -25 12 -55 12 -54 0 -62 10 -24 30 14 7 25 19 25 27 0 7 5 13 10
13 6 0 10 11 10 25 0 16 6 25 15 25 8 0 15 5 15 10 0 6 9 10 20 10 11 0 20 5
20 10 0 6 -9 10 -20 10 -17 0 -20 7 -20 50 0 29 -5 50 -11 50 -5 0 -7 5 -4 10
8 13 35 13 35 -1 0 -6 7 -18 16 -26 13 -14 17 -14 25 -2 12 20 11 27 -6 37
-10 5 -13 15 -9 25 7 20 20 22 27 5z m127 2 c0 -5 -4 -10 -10 -10 -5 0 -10 5
-10 10 0 6 5 10 10 10 6 0 10 -4 10 -10z m-1290 -70 c0 -5 -9 -10 -20 -10 -11
0 -20 5 -20 10 0 6 9 10 20 10 11 0 20 -4 20 -10z m696 -60 c8 0 14 -4 14 -10
0 -5 -6 -10 -14 -10 -15 0 -26 -21 -26 -51 0 -12 -7 -19 -20 -19 -17 0 -20 7
-20 44 0 44 11 59 38 50 8 -2 20 -4 28 -4z m-136 -52 c0 -5 -4 -8 -10 -8 -5 0
-10 10 -10 23 0 18 2 19 10 7 5 -8 10 -18 10 -22z m160 0 c0 -7 -5 -20 -10
-28 -8 -12 -10 -9 -10 13 0 15 5 27 10 27 6 0 10 -6 10 -12z m764 6 c23 -9 20
-31 -5 -37 -13 -3 -22 0 -26 10 -5 13 -7 13 -15 -1 -13 -24 -28 -19 -28 9 0
21 5 25 29 25 16 0 36 -3 45 -6z m-884 -109 c0 -36 -3 -65 -6 -65 -4 0 -15 10
-26 22 -16 19 -21 20 -28 8 -17 -26 -11 -40 18 -41 15 0 21 -3 15 -6 -7 -2
-13 -11 -13 -19 0 -8 -4 -14 -10 -14 -5 0 -10 5 -10 10 0 6 -16 10 -35 10 -19
0 -46 5 -60 12 -26 12 -34 38 -11 38 9 0 12 8 8 25 -3 20 -9 24 -23 20 -15 -5
-19 -1 -19 19 0 14 5 26 10 26 6 0 10 -6 10 -14 0 -8 9 -18 20 -21 16 -5 20
-15 20 -46 0 -41 12 -49 36 -25 17 18 19 83 2 88 -27 9 17 37 60 38 l42 0 0
-65z m940 55 c0 -5 -7 -10 -15 -10 -8 0 -15 5 -15 10 0 6 7 10 15 10 8 0 15
-4 15 -10z m-820 -39 c0 -5 -7 -11 -15 -15 -8 -3 -15 -17 -15 -31 0 -15 -4
-24 -10 -20 -5 3 -10 17 -10 31 0 13 -6 24 -12 25 -18 1 23 17 45 18 9 1 17
-3 17 -8z m-70 -32 c0 -5 -4 -9 -10 -9 -5 0 -10 7 -10 16 0 8 5 12 10 9 6 -3
10 -10 10 -16z m890 -39 c0 -5 -8 -10 -17 -10 -15 0 -16 2 -3 10 19 12 20 12
20 0z m-890 -30 c0 -5 -4 -10 -10 -10 -5 0 -10 5 -10 10 0 6 5 10 10 10 6 0
10 -4 10 -10z m320 -20 c0 -5 -4 -10 -10 -10 -5 0 -10 5 -10 10 0 6 5 10 10
10 6 0 10 -4 10 -10z"/>
<path d="M1092 1240 c-12 -11 -28 -20 -37 -20 -9 0 -15 -9 -15 -25 0 -16 6
-25 16 -25 17 0 74 53 74 69 0 20 -17 20 -38 1z"/>
<path d="M1335 1129 c-4 -12 -20 -35 -36 -52 -35 -36 -39 -81 -9 -99 23 -14
26 -34 8 -41 -8 -2 -9 -8 -4 -13 5 -5 11 -4 13 4 3 6 18 12 35 12 40 0 58 21
58 69 0 22 7 56 16 75 15 31 16 36 1 50 -24 24 -74 21 -82 -5z"/>
<path d="M2970 1140 c0 -5 -7 -10 -15 -10 -8 0 -15 -7 -15 -15 0 -8 7 -15 16
-15 11 0 14 -6 9 -20 -5 -14 -2 -20 9 -20 9 0 16 -7 16 -15 0 -9 9 -15 21 -15
19 0 49 -21 49 -34 0 -3 -10 -6 -21 -6 -12 0 -30 -9 -39 -20 -22 -25 -46 -18
-66 21 -8 16 -19 29 -24 29 -6 0 -10 14 -10 30 0 35 -17 41 -22 8 -2 -16 -12
-24 -33 -28 -28 -5 -51 -40 -26 -40 6 0 11 -11 11 -25 0 -18 5 -25 20 -25 11
0 20 -4 20 -10 0 -5 11 -10 24 -10 15 0 26 -7 29 -20 7 -26 54 -45 73 -29 8 6
14 20 14 30 0 27 18 24 22 -3 2 -15 11 -24 26 -26 21 -3 22 0 22 57 0 34 4 61
9 61 5 0 14 13 21 29 9 22 9 34 0 50 -14 26 -30 18 -30 -15 0 -13 -4 -24 -10
-24 -9 0 -14 18 -13 48 1 18 -33 52 -52 52 -8 0 -15 5 -15 10 0 6 -4 10 -10
10 -5 0 -10 -4 -10 -10z"/>
<path d="M2925 1050 c-3 -5 -1 -10 4 -10 6 0 11 5 11 10 0 6 -2 10 -4 10 -3 0
-8 -4 -11 -10z"/>
<path d="M2433 1033 c-15 -6 -17 -43 -3 -43 6 0 10 -11 10 -25 0 -14 5 -25 10
-25 6 0 10 -7 10 -15 0 -42 57 -68 101 -45 24 13 27 78 4 86 -8 4 -15 15 -15
25 0 10 -4 19 -10 19 -5 0 -10 7 -10 15 0 11 -11 15 -42 14 -24 0 -49 -3 -55
-6z"/>
<path d="M2940 1010 c0 -15 7 -20 25 -20 18 0 25 5 25 20 0 15 -7 20 -25 20
-18 0 -25 -5 -25 -20z"/>
<path d="M900 934 c0 -11 29 -34 44 -34 14 0 14 3 4 20 -11 18 -48 29 -48 14z"/>
<path d="M3238 933 c7 -3 16 -2 19 1 4 3 -2 6 -13 5 -11 0 -14 -3 -6 -6z"/>
<path d="M3425 910 c-4 -6 7 -10 25 -10 18 0 29 4 25 10 -3 6 -15 10 -25 10
-10 0 -22 -4 -25 -10z"/>
<path d="M1220 885 c0 -8 -4 -15 -10 -15 -5 0 -10 -9 -10 -20 0 -11 5 -20 10
-20 6 0 10 9 10 20 0 11 5 20 10 20 6 0 10 7 10 15 0 8 -4 15 -10 15 -5 0 -10
-7 -10 -15z"/>
<path d="M280 840 c0 -5 5 -10 10 -10 6 0 10 5 10 10 0 6 -4 10 -10 10 -5 0
-10 -4 -10 -10z"/>
<path d="M320 840 c0 -5 20 -10 45 -10 25 0 45 5 45 10 0 6 -20 10 -45 10 -25
0 -45 -4 -45 -10z"/>
<path d="M2510 750 c0 -5 5 -10 10 -10 6 0 10 5 10 10 0 6 -4 10 -10 10 -5 0
-10 -4 -10 -10z"/>
<path d="M3084 735 c-4 -11 -17 -28 -27 -38 -17 -14 -18 -21 -9 -43 7 -14 12
-33 12 -44 0 -10 6 -21 13 -23 10 -4 10 -6 0 -6 -15 -1 -18 -31 -3 -31 6 0 10
-16 10 -35 0 -19 5 -35 10 -35 6 0 11 -21 11 -47 2 -121 5 -149 17 -156 6 -4
12 -17 12 -27 0 -13 7 -20 20 -20 11 0 20 -4 20 -10 0 -5 7 -10 15 -10 8 0 15
-5 15 -11 0 -17 27 -39 49 -39 12 0 21 -4 21 -10 0 -5 16 -10 35 -10 19 0 35
-4 35 -9 0 -8 67 -26 140 -38 19 -3 39 -11 43 -17 6 -8 10 -8 14 2 3 8 36 12
117 12 83 0 117 4 132 15 10 8 31 15 47 15 15 0 27 5 27 10 0 6 9 10 21 10 22
0 49 22 49 39 0 6 -4 11 -10 11 -5 0 -10 -7 -10 -16 0 -11 -6 -15 -20 -11 -10
3 -27 -1 -37 -9 -26 -19 -71 -17 -94 5 -19 18 -20 20 -3 29 16 9 15 10 -4 16
-12 4 -22 12 -22 17 0 5 -16 9 -35 9 -19 0 -35 5 -35 10 0 6 24 10 53 10 61 0
67 3 60 31 -3 12 -14 19 -29 19 -13 0 -24 5 -24 10 0 6 -9 10 -20 10 -11 0
-20 -4 -20 -10 0 -5 -4 -10 -10 -10 -5 0 -10 11 -10 25 0 14 5 25 10 25 6 0
10 5 10 10 0 15 -40 12 -56 -5 -22 -22 -34 -18 -34 9 0 18 6 25 23 28 16 2 21
9 19 23 -6 30 -10 30 -36 2 -28 -30 -96 -39 -96 -13 0 9 8 12 24 9 24 -5 49
18 28 25 -16 5 -15 35 0 50 9 9 7 12 -10 12 -18 0 -22 -6 -22 -29 0 -17 -4
-33 -10 -36 -6 -4 -10 5 -10 19 0 21 -5 26 -25 26 -14 0 -25 -4 -25 -10 0 -5
-7 -10 -15 -10 -8 0 -15 -4 -15 -10 0 -5 -9 -10 -20 -10 -11 0 -20 5 -20 10 0
6 7 10 15 10 8 0 15 5 15 10 0 6 9 10 20 10 16 0 20 7 20 35 0 28 4 35 19 35
32 0 51 11 51 30 0 10 -6 20 -12 23 -8 2 -9 8 -4 13 5 5 11 4 13 -3 3 -7 13
-13 24 -13 10 0 19 -7 19 -15 0 -8 7 -15 15 -15 8 0 15 7 15 15 0 8 -5 15 -11
15 -11 0 -39 25 -39 35 0 10 -28 35 -39 35 -6 0 -11 6 -11 13 0 8 -4 7 -10 -3
-5 -8 -10 -30 -10 -47 0 -18 -4 -33 -10 -33 -5 0 -10 -7 -10 -16 0 -11 -5 -14
-16 -10 -9 3 -18 6 -20 6 -2 0 -4 5 -4 10 0 6 9 10 20 10 22 0 27 15 8 24 -10
5 -10 7 0 12 14 7 17 74 3 74 -5 0 -11 -12 -13 -27 -3 -31 -35 -44 -49 -22 -6
10 -11 11 -19 3 -12 -12 -3 -44 11 -44 17 0 9 -50 -10 -69 -20 -20 -20 -20
-23 1 -4 27 -22 33 -41 13 -9 -8 -21 -15 -27 -15 -7 0 -10 -8 -7 -20 3 -13 0
-20 -9 -20 -8 0 -14 5 -14 10 0 6 -9 10 -20 10 -11 0 -20 5 -20 10 0 6 4 10 9
10 5 0 11 9 14 19 4 15 10 18 28 14 18 -5 21 -3 16 10 -7 20 1 47 14 47 5 0 9
-9 9 -20 0 -26 8 -25 31 2 26 29 24 41 -6 34 -20 -5 -25 -3 -25 14 0 11 -4 20
-10 20 -5 0 -10 -6 -10 -12 0 -20 -62 -85 -67 -70 -3 6 -15 12 -28 12 -13 0
-26 6 -29 13 -5 10 -7 10 -12 0 -13 -28 -24 -10 -24 40 0 60 -14 94 -26 62z
m226 -215 c0 -5 -4 -10 -10 -10 -5 0 -10 5 -10 10 0 6 5 10 10 10 6 0 10 -4
10 -10z m-33 -52 c-3 -7 -5 -2 -5 12 0 14 2 19 5 13 2 -7 2 -19 0 -25z m-78
-20 c1 -5 -3 -8 -8 -8 -11 0 -21 37 -13 45 6 5 20 -19 21 -37z m47 -5 c18 -24
17 -61 -1 -79 -13 -14 -17 -14 -30 0 -21 20 -19 26 10 26 16 0 25 6 25 15 0 8
-7 15 -15 15 -8 0 -15 9 -15 20 0 25 9 25 26 3z m224 -13 c0 -5 -4 -10 -10
-10 -5 0 -10 5 -10 10 0 6 5 10 10 10 6 0 10 -4 10 -10z m-110 -50 c0 -5 -4
-10 -10 -10 -5 0 -10 5 -10 10 0 6 5 10 10 10 6 0 10 -4 10 -10z m140 -25 c0
-9 -9 -15 -25 -15 -16 0 -25 6 -25 15 0 9 9 15 25 15 16 0 25 -6 25 -15z m60
-25 c0 -5 5 -10 11 -10 6 0 18 -7 26 -16 14 -13 14 -17 2 -25 -22 -14 -29 -11
-41 16 -14 31 -34 32 -43 4 -6 -17 -9 -19 -16 -8 -13 20 -11 29 6 29 8 0 15 5
15 10 0 6 9 10 20 10 11 0 20 -4 20 -10z m-340 -40 c0 -5 -4 -10 -10 -10 -5 0
-10 5 -10 10 0 6 5 10 10 10 6 0 10 -4 10 -10z m160 0 c0 -5 -4 -10 -10 -10
-5 0 -10 5 -10 10 0 6 5 10 10 10 6 0 10 -4 10 -10z m70 -15 c0 -27 -22 -33
-50 -15 -13 8 -11 11 8 16 12 4 22 10 22 15 0 5 5 9 10 9 6 0 10 -11 10 -25z
m-210 -35 c0 -5 -4 -10 -10 -10 -5 0 -10 5 -10 10 0 6 5 10 10 10 6 0 10 -4
10 -10z m300 -10 c0 -11 -4 -20 -10 -20 -5 0 -10 9 -10 20 0 11 5 20 10 20 6
0 10 -9 10 -20z m-70 -10 c0 -5 -9 -10 -20 -10 -11 0 -20 5 -20 10 0 6 9 10
20 10 11 0 20 -4 20 -10z m216 -16 c15 -4 20 -11 17 -25 -5 -20 -23 -27 -23
-9 0 5 -11 12 -25 16 -14 3 -22 10 -19 15 6 10 20 11 50 3z m-286 -54 c0 -5
-4 -10 -10 -10 -5 0 -10 5 -10 10 0 6 5 10 10 10 6 0 10 -4 10 -10z m70 0 c0
-5 -4 -10 -10 -10 -5 0 -10 5 -10 10 0 6 5 10 10 10 6 0 10 -4 10 -10z m165
-20 c3 -5 -1 -10 -9 -10 -9 0 -16 5 -16 10 0 6 4 10 9 10 6 0 13 -4 16 -10z"/>
<path d="M191 724 c0 -11 3 -14 6 -6 3 7 2 16 -1 19 -3 4 -6 -2 -5 -13z"/>
<path d="M2690 720 c0 -5 5 -10 10 -10 6 0 10 5 10 10 0 6 -4 10 -10 10 -5 0
-10 -4 -10 -10z"/>
<path d="M3380 720 c0 -5 5 -10 10 -10 6 0 10 5 10 10 0 6 -4 10 -10 10 -5 0
-10 -4 -10 -10z"/>
<path d="M1500 700 c0 -5 5 -10 10 -10 6 0 10 5 10 10 0 6 -4 10 -10 10 -5 0
-10 -4 -10 -10z"/>
<path d="M830 665 c0 -14 5 -25 10 -25 6 0 10 11 10 25 0 14 -4 25 -10 25 -5
0 -10 -11 -10 -25z"/>
<path d="M4070 630 c0 -5 5 -10 10 -10 6 0 10 5 10 10 0 6 -4 10 -10 10 -5 0
-10 -4 -10 -10z"/>
<path d="M990 585 c0 -35 12 -43 39 -26 11 7 10 10 -4 18 -12 7 -14 13 -6 17
18 11 13 26 -9 26 -16 0 -20 -7 -20 -35z"/>
<path d="M3770 610 c0 -5 11 -10 25 -10 14 0 25 5 25 10 0 6 -11 10 -25 10
-14 0 -25 -4 -25 -10z"/>
<path d="M3956 605 c-9 -23 -8 -25 9 -25 17 0 19 9 6 28 -7 11 -10 10 -15 -3z"/>
<path d="M900 579 c0 -43 53 -67 65 -29 9 27 -3 42 -26 35 -11 -4 -19 -2 -19
4 0 6 -4 11 -10 11 -5 0 -10 -9 -10 -21z"/>
<path d="M3941 533 c-1 -17 5 -23 19 -23 11 0 20 5 20 10 0 6 -6 10 -14 10 -8
0 -17 6 -19 13 -3 6 -6 2 -6 -10z"/>
<path d="M3470 520 c0 -5 7 -10 15 -10 8 0 15 5 15 10 0 6 -7 10 -15 10 -8 0
-15 -4 -15 -10z"/>
<path d="M3590 520 c0 -5 5 -10 10 -10 6 0 10 5 10 10 0 6 -4 10 -10 10 -5 0
-10 -4 -10 -10z"/>
<path d="M3840 520 c0 -5 5 -10 10 -10 6 0 10 5 10 10 0 6 -4 10 -10 10 -5 0
-10 -4 -10 -10z"/>
<path d="M2320 470 c0 -5 5 -10 10 -10 6 0 10 5 10 10 0 6 -4 10 -10 10 -5 0
-10 -4 -10 -10z"/>
<path d="M2830 460 c0 -13 7 -20 20 -20 24 0 25 6 6 26 -20 19 -26 18 -26 -6z"/>
<path d="M3590 470 c0 -5 5 -10 10 -10 6 0 10 5 10 10 0 6 -4 10 -10 10 -5 0
-10 -4 -10 -10z"/>
<path d="M3915 470 c3 -5 8 -10 11 -10 2 0 4 5 4 10 0 6 -5 10 -11 10 -5 0 -7
-4 -4 -10z"/>
<path d="M1795 450 c-3 -5 1 -10 9 -10 9 0 16 5 16 10 0 6 -4 10 -9 10 -6 0
-13 -4 -16 -10z"/>
<path d="M2350 404 c0 -8 5 -12 10 -9 6 4 8 11 5 16 -9 14 -15 11 -15 -7z"/>
<path d="M2280 404 c0 -10 31 -36 37 -31 3 3 -2 13 -10 22 -16 15 -27 19 -27
9z"/>
<path d="M3890 400 c0 -5 5 -10 10 -10 6 0 10 5 10 10 0 6 -4 10 -10 10 -5 0
-10 -4 -10 -10z"/>
<path d="M3730 360 c0 -5 9 -10 20 -10 11 0 20 5 20 10 0 6 -9 10 -20 10 -11
0 -20 -4 -20 -10z"/>
<path d="M3820 305 c0 -8 2 -15 4 -15 2 0 11 -3 20 -6 12 -4 16 0 16 15 0 14
-6 21 -20 21 -11 0 -20 -7 -20 -15z"/>
<path d="M2020 259 c0 -22 22 -49 39 -49 16 0 13 39 -3 56 -21 20 -36 17 -36
-7z"/>
<path d="M3868 263 c7 -3 16 -2 19 1 4 3 -2 6 -13 5 -11 0 -14 -3 -6 -6z"/>
<path d="M2987 254 c-8 -8 1 -24 14 -24 5 0 9 7 9 15 0 15 -12 20 -23 9z"/>
<path d="M1970 240 c0 -5 7 -10 15 -10 8 0 15 5 15 10 0 6 -7 10 -15 10 -8 0
-15 -4 -15 -10z"/>
<path d="M2850 230 c0 -15 7 -20 27 -20 l27 0 -22 20 c-12 11 -24 20 -27 20
-3 0 -5 -9 -5 -20z"/>
<path d="M3820 242 c0 -4 9 -14 20 -22 11 -8 20 -20 20 -27 0 -7 7 -13 15 -13
8 0 15 7 15 15 0 8 -6 15 -13 15 -7 0 -19 9 -27 20 -15 20 -30 27 -30 12z"/>
<path d="M3960 220 c0 -5 5 -10 10 -10 6 0 10 5 10 10 0 6 -4 10 -10 10 -5 0
-10 -4 -10 -10z"/>
<path d="M2000 200 c0 -5 5 -10 10 -10 6 0 10 5 10 10 0 6 -4 10 -10 10 -5 0
-10 -4 -10 -10z"/>
<path d="M2945 200 c-3 -5 1 -10 10 -10 9 0 13 5 10 10 -3 6 -8 10 -10 10 -2
0 -7 -4 -10 -10z"/>
<path d="M3035 200 c-3 -5 1 -10 10 -10 9 0 13 5 10 10 -3 6 -8 10 -10 10 -2
0 -7 -4 -10 -10z"/>
<path d="M2788 168 c9 -9 15 -9 24 0 9 9 7 12 -12 12 -19 0 -21 -3 -12 -12z"/>
<path d="M3820 170 c0 -5 5 -10 10 -10 6 0 10 5 10 10 0 6 -4 10 -10 10 -5 0
-10 -4 -10 -10z"/>
</g>
</svg>
